HIERARCHY
ROOT Hips
{
    OFFSET 0.000000 0.000000 0.000000
    CHANNELS 6 Xposition Yposition Zposition Zrotation Xrotation Yrotation
    JOINT Spine
    {
        OFFSET -0.000000 0.050574 0.000000
        CHANNELS 3 Zrotation Xrotation Yrotation
        JOINT Spine1
        {
            OFFSET 0.000000 0.175826 0.000000
            CHANNELS 3 Zrotation Xrotation Yrotation
            JOINT Neck
            {
                OFFSET -0.000000 0.236303 -0.000000
                CHANNELS 3 Zrotation Xrotation Yrotation
                JOINT Head
                {
                    OFFSET -0.000000 0.156667 0.017213
                    CHANNELS 3 Zrotation Xrotation Yrotation
                    End Site
                    {
                        OFFSET 0.000000 0.172131 0.000000
                    }
                }
            }
            JOINT LeftShoulder
            {
                OFFSET 0.034424 0.164350 -0.002298
                CHANNELS 3 Zrotation Xrotation Yrotation
                JOINT LeftArm
                {
                    OFFSET 0.124521 0.000000 0.000000
                    CHANNELS 3 Zrotation Xrotation Yrotation
                    JOINT LeftForeArm
                    {
                        OFFSET 0.262599 -0.000000 0.000000
                        CHANNELS 3 Zrotation Xrotation Yrotation
                        JOINT LeftHand
                        {
                            OFFSET 0.170315 0.000000 -0.000000
                            CHANNELS 3 Zrotation Xrotation Yrotation
                            End Site
                            {
                                OFFSET 0.129099 0.000000 0.000000
                            }
                        }
                    }
                }
            }
            JOINT RightShoulder
            {
                OFFSET -0.034424 0.164350 -0.002298
                CHANNELS 3 Zrotation Xrotation Yrotation
                JOINT RightArm
                {
                    OFFSET -0.124521 -0.000000 -0.000000
                    CHANNELS 3 Zrotation Xrotation Yrotation
                    JOINT RightForeArm
                    {
                        OFFSET -0.262599 -0.000000 -0.000000
                        CHANNELS 3 Zrotation Xrotation Yrotation
                        JOINT RightHand
                        {
                            OFFSET -0.170315 -0.000000 0.000000
                            CHANNELS 3 Zrotation Xrotation Yrotation
                            End Site
                            {
                                OFFSET -0.129099 0.000000 0.000000
                            }
                        }
                    }
                }
            }
        }
    }
    JOINT LeftUpLeg
    {
        OFFSET 0.086066 -0.000000 -0.000000
        CHANNELS 3 Zrotation Xrotation Yrotation
        JOINT LeftLeg
        {
            OFFSET 0.000000 -0.390910 0.000000
            CHANNELS 3 Zrotation Xrotation Yrotation
            JOINT LeftFoot
            {
                OFFSET 0.000000 -0.377593 -0.000000
                CHANNELS 3 Zrotation Xrotation Yrotation
                JOINT LeftToeBase
                {
                    OFFSET 0.000000 -0.055943 0.129099
                    CHANNELS 3 Zrotation Xrotation Yrotation
                    End Site
                    {
                        OFFSET 0.000000 0.000000 0.034426
                    }
                }
            }
        }
    }
    JOINT RightUpLeg
    {
        OFFSET -0.086066 0.000000 0.000000
        CHANNELS 3 Zrotation Xrotation Yrotation
        JOINT RightLeg
        {
            OFFSET 0.000000 -0.390910 -0.000000
            CHANNELS 3 Zrotation Xrotation Yrotation
            JOINT RightFoot
            {
                OFFSET -0.000000 -0.377593 -0.000000
                CHANNELS 3 Zrotation Xrotation Yrotation
                JOINT RightToeBase
                {
                    OFFSET 0.000000 -0.055943 0.129099
                    CHANNELS 3 Zrotation Xrotation Yrotation
                    End Site
                    {
                        OFFSET 0.000000 0.000000 0.034426
                    }
                }
            }
        }
    }
}
MOTION
Frames:    9
Frame Time:    0.008333
0.235857    1.598003    -1.725153    53.143543    27.736597    86.633141    -0.232086    12.574153    1.065954    -6.645104    15.531171    2.794392    -22.124321    12.483233    -8.882761    10.470773    -0.626802    -13.145846    17.693790    -10.130295    -10.641186    31.204512    -30.627186    -28.584473    -2.415352    -9.854977    -13.844560    4.582374    -11.910426    11.375662    -45.452602    -7.399556    2.844265    -38.376884    -20.665323    29.243824    1.629578    -12.288706    7.613353    2.829148    -13.591464    -6.231636    53.765255    -54.237576    24.689625    -0.000004    -0.416721    0.000002    40.002598    40.401031    -32.710075    0.000004    50.764858    -0.000005    14.512139    11.311952    -11.941196    0.000006    -7.498213    0.000004    12.418059    51.935596    -19.053036    0.000013    52.765114    -0.000011    
0.232182    1.571779    -1.722139    49.585499    25.710167    84.858589    -0.321706    11.940181    1.554604    -7.018986    15.233670    3.328749    -22.237707    9.679172    -9.743347    10.326556    -1.647354    -12.635003    17.943586    -10.005360    -9.928479    33.228901    -30.772270    -27.286221    -2.186343    -9.456369    -13.081626    4.423356    -11.366368    12.325472    -45.352909    -8.048279    3.838590    -39.455135    -20.589725    27.696072    1.505675    -12.101362    7.146461    3.322463    -13.353220    -6.406381    58.659496    -51.097626    26.388277    -0.000000    -0.762146    0.000001    39.149132    39.614079    -31.115847    -0.000000    50.336861    -0.000000    13.216393    13.727359    -11.336843    0.000011    -6.971839    0.000012    12.896893    51.905434    -19.255924    -0.000006    52.765617    0.000004    
0.227805    1.546226    -1.718171    46.055931    23.499489    82.799759    -0.404814    11.210204    2.081376    -7.329773    14.908242    3.880179    -22.115021    6.939164    -10.572948    10.187246    -2.554652    -12.150908    18.279327    -9.800078    -9.453794    35.096138    -30.779484    -26.026953    -1.999419    -9.429477    -12.029064    3.941046    -11.242746    13.093980    -45.221046    -8.846655    5.066177    -40.324860    -20.535490    26.388418    1.423304    -12.225044    6.692370    3.902739    -13.434463    -6.649763    63.044991    -47.162506    26.459333    0.000002    -0.308114    -0.000001    37.847446    39.794304    -28.926428    -0.000003    50.078396    -0.000009    11.469011    15.975057    -10.486139    -0.000001    -6.217069    -0.000000    13.717424    51.984875    -19.949875    0.000027    52.755611    -0.000015    
0.223415    1.522197    -1.714127    42.546806    21.122755    80.451408    -0.467931    10.353395    2.601979    -7.506908    14.542625    4.387905    -21.704737    4.218426    -11.299562    10.099938    -3.367442    -11.637362    18.705360    -9.619798    -9.274552    36.719162    -30.736504    -24.757875    -1.874705    -9.965884    -10.709952    3.184753    -11.768091    13.422129    -45.051582    -9.806877    6.447966    -41.108620    -20.522881    25.283583    1.333124    -12.421995    6.174521    4.094321    -13.605492    -7.199452    66.899269    -43.016834    25.232706    -0.000002    0.306051    -0.000001    35.564079    40.157207    -25.425247    -0.000007    49.847733    0.000007    9.235399    18.029844    -9.329653    -0.000000    -5.282578    0.000001    14.886037    52.115002    -21.171915    -0.000003    52.737389    0.000006    
0.218729    1.499799    -1.710191    39.024410    18.604416    77.933800    -0.497340    9.350871    3.058106    -7.520064    14.144005    4.791104    -20.926121    1.512649    -11.887465    10.087228    -4.065751    -11.101334    19.221489    -9.560969    -9.446467    38.079716    -30.759607    -23.486191    -1.826604    -11.223547    -9.305156    2.280759    -13.106745    13.147173    -44.824776    -10.993601    7.970287    -41.911861    -20.548073    24.222839    1.186486    -12.424557    5.498470    3.936548    -13.584120    -7.957918    70.204582    -38.618176    22.809807    0.000002    1.150315    0.000002    32.299408    40.504055    -20.527544    -0.000006    49.632511    0.000006    6.477313    19.811344    -7.705001    -0.000001    -4.368532    -0.000004    16.128860    52.174824    -22.643559    0.000008    52.695766    -0.000015    
0.214390    1.479332    -1.706069    35.466694    16.031193    75.332237    -0.487205    8.213613    3.406311    -7.341503    13.736965    5.045668    -19.838346    -1.251401    -12.338681    10.137300    -4.698943    -10.548699    19.807484    -9.680836    -9.900352    39.268536    -30.853987    -22.058893    -1.770376    -12.885442    -7.891026    1.511951    -14.899018    12.353882    -44.496887    -12.534725    9.684641    -42.752964    -20.721130    23.186579    1.012229    -12.428869    4.693034    3.631154    -13.555726    -8.713018    72.762474    -34.028809    19.361490    -0.000000    2.122958    -0.000002    28.181383    40.622784    -14.282635    -0.000004    49.428349    0.000005    3.245416    21.221569    -5.505503    0.000002    -3.433191    0.000006    17.261683    52.436962    -24.093328    -0.000005    52.625618    0.000002    
0.210447    1.461243    -1.702184    31.878635    13.466946    72.673203    -0.438887    6.981240    3.606216    -6.997689    13.360940    5.124725    -18.523212    -4.223065    -12.673404    10.244593    -5.379215    -9.961447    20.455797    -10.002221    -10.530795    40.447811    -30.990921    -20.406765    -1.634124    -14.551549    -6.477974    1.022094    -16.706758    11.245759    -44.039459    -14.408228    11.543136    -43.623043    -21.059061    22.100790    0.845375    -12.554980    3.883281    3.498460    -13.631897    -9.148137    74.494431    -29.251017    15.518994    0.000004    2.941642    0.000001    23.538971    40.264851    -6.996329    0.000012    49.213722    -0.000009    -0.489189    22.123337    -2.753019    0.000002    -2.682439    0.000005    18.402225    52.784954    -25.646452    -0.000004    52.537186    -0.000000    
0.206639    1.445902    -1.698861    28.311749    10.961884    69.902771    -0.355976    5.653284    3.608913    -6.530317    13.032323    4.992626    -16.911057    -7.364658    -12.781359    10.456805    -6.094441    -9.295510    21.118050    -10.437572    -11.299601    41.642029    -31.065920    -18.612913    -1.403380    -15.831875    -5.131346    0.879599    -18.117420    10.139584    -43.445889    -16.492666    13.500985    -44.510612    -21.548216    21.010258    0.703533    -12.856339    3.158813    3.626016    -13.871072    -9.261724    75.357033    -24.201694    11.841000    0.000000    3.358718    -0.000000    18.881105    39.377251    0.675123    -0.000006    48.993389    0.000001    -4.650454    22.464458    0.285002    0.000000    -2.136201    0.000002    20.019268    53.008553    -27.822201    -0.000012    52.425648    0.000018    
0.203242    1.433339    -1.696373    24.830858    8.590980    66.945641    -0.249726    4.217428    3.391779    -5.938171    12.747724    4.625813    -15.077545    -10.374797    -12.542617    10.743773    -6.730611    -8.551677    21.728045    -10.944222    -12.155760    42.826294    -31.062527    -16.723185    -1.120387    -16.601828    -3.915681    1.054715    -19.003759    9.224135    -42.758297    -18.562685    15.471316    -45.450756    -22.116827    20.017365    0.559024    -13.169896    2.452158    3.749204    -14.119654    -9.421976    75.342857    -18.821175    8.570543    0.000008    3.232518    0.000001    14.678601    38.207741    7.781500    0.000001    48.796192    -0.000001    -9.311303    22.244453    3.568252    -0.000000    -1.747509    -0.000006    22.108877    52.809483    -30.682573    0.000004    52.260551    -0.000008    
